<?xml version="1.0" standalone="no"?><!DOCTYPE svg PUBLIC "-//W3C//DTD SVG 1.1//EN" "http://www.w3.org/Graphics/SVG/1.1/DTD/svg11.dtd"><svg t="1494076883514" class="icon" style="" viewBox="0 0 1024 1024" version="1.1" xmlns="http://www.w3.org/2000/svg" p-id="1982" xmlns:xlink="http://www.w3.org/1999/xlink" width="200" height="200"><defs><style type="text/css"></style></defs><path d="M177.287 626.933c-65.665 75.941-127.685 147.661-74.411 294.282 22.25 61.249 93.696 95.49 212.361 101.762 13.693 0.725 27.22 1.023 40.256 1.023 60.712 0 110.913-6.598 120.87-7.992l26.774 0.011c18.054 0.023 40.598 0.034 65.088 0.034 82.117 0 186.083-0.189 215.987-1.291 21.13-0.788 38.696-12.19 48.207-31.27 14.373-28.871 9.334-72.4-12.002-103.521-21.296-31.076-37.988-65.213-26.317-168.803 2.948-26.135 24.267-50.767 44.889-74.605 10.831-12.516 21.068-24.329 28.928-36.64 23.364-36.571 34.76-88.166 29.751-134.662-2.096-19.51-10.985-40.766-19.588-61.323-7.803-18.665-15.869-37.954-16.063-49.946 0-0.011 0-0.023-0.011-0.034 3.77-2.384 14.938-4.87 22.513-6.552 13.67-3.03 29.162-6.484 43.986-14.243 45.894-24.063 45.191-68.064 44.854-89.197-0.446-27.043-10.545-36.671-24.529-49.992l-5.553-5.341c-3.039-2.959-3.073-3.18-3.987-9.014-1.4-8.826-3.496-22.15-17.6-39.801-15.509-19.413-43.9-32.333-63.991-39.533L886.558 0l-44.34 20.413c-9.46 4.359-93.364 43.297-122.698 67.729-6.015 5.021-12.944 9.557-20.279 14.355-24.141 15.806-54.183 35.474-75.153 87.072-13.253 32.59-17.257 65.53-20.793 94.595-3.188 26.148-5.924 48.735-14.315 61.851-6.455 10.111-26.374 16.806-49.436 24.566-30.625 10.3-68.738 23.113-105.429 52.549-141.629 113.661-146.77 282.097-126.137 403.379 0.491 2.913 0.914 5.364 1.211 7.323 6.598 43.238 27.974 105.606 70.932 144.999-94.01 2.736-212.035-9.214-235.255-73.091-44.192-121.635 2.079-175.167 66.139-249.239 47.048-54.423 100.379-116.1 121.087-215.605 11.134-53.442 0.291-105.435-29.722-142.654C277.338 267.2 240.801 249.395 202.122 249.395c-84.55 0-135.025 47.276-135.025 126.471 0 65.25 47.893 131.684 49.927 134.477L153.075 483.7c-0.394-0.551-41.261-57.467-41.261-107.831 0-54.046 30.379-81.451 90.308-81.451 25.512 0 48.802 11.444 65.539 32.209 21.485 26.643 29.031 64.928 20.679 105.037-18.327 88.035-65.466 142.543-111.05 195.269z m297.504 344.054c-98.3 0-120.516-138.122-121.413-144.005-0.326-2.154-0.788-4.856-1.337-8.066-27.031-159.018 9.951-280.321 109.931-360.564 30.516-24.48 63.031-35.414 91.742-45.066 31.07-10.454 57.902-19.479 72.88-42.912 13.904-21.776 17.4-50.409 21.09-80.737 3.353-27.534 6.809-56.013 17.783-83.01 15.686-38.582 36.308-52.081 58.153-66.381 8.066-5.284 16.4-10.747 24.404-17.412 12.522-10.428 41.541-26.28 68.075-39.755l-13.95 48.473 22.593 5.595c18.08 4.507 50.915 16.894 62.112 30.899 6.644 8.323 7.295 12.419 8.272 18.631 1.394 8.826 3.296 20.908 17.063 34.315l5.912 5.684c10.414 9.925 10.414 9.925 10.551 17.994 0.348 21.87-0.943 38.154-20.799 48.55-9.574 5.024-21.462 7.674-32.967 10.225-23.175 5.155-58.21 12.935-57.587 51.298 0.337 20.696 10.122 44.066 19.577 66.676 7.341 17.566 14.944 35.722 16.338 48.695 3.953 36.743-4.816 77.153-22.901 105.452-6.101 9.551-15.292 20.182-25.026 31.43-23.952 27.665-51.092 59.033-55.611 99.1-13.39 118.933 8.414 162.223 33.961 199.468 12.824 18.708 14.944 45.454 8.809 57.753-2.251 4.519-4.924 6.278-9.877 6.455-37.971 1.405-201.096 1.314-279.395 1.234l-28.381-0.018z" fill="#13227a" p-id="1983"></path></svg>